if (_typeface_js && _typeface_js.loadFace) _typeface_js.loadFace({"glyphs":{"0":{"ha":1244,"x_min":86,"x_max":1158,"o":"m 810 144 q 974 208 974 144 l 974 767 q 810 833 974 833 l 435 833 q 271 767 271 833 l 271 211 q 435 144 271 144 l 810 144 m 86 767 q 435 978 86 978 l 810 978 q 1158 767 1158 978 l 1158 208 q 810 0 1158 0 l 435 0 q 86 211 86 0 l 86 767 z "},"1":{"ha":546,"x_min":7,"x_max":454,"o":"m 454 0 l 269 0 l 269 833 l 201 763 l 7 763 l 197 978 l 454 978 l 454 0 z "},"2":{"ha":1164,"x_min":79,"x_max":1085,"o":"m 736 589 q 900 656 900 589 l 900 767 q 736 833 900 833 l 126 833 l 126 978 l 736 978 q 1085 767 1085 978 l 1085 656 q 736 444 1085 444 l 428 444 q 264 378 264 444 l 264 144 l 1085 144 l 1085 0 l 79 0 l 79 378 q 428 589 79 589 l 736 589 z "},"3":{"ha":1125,"x_min":78,"x_max":1042,"o":"m 78 0 l 78 144 l 693 144 q 857 211 857 144 l 857 386 q 819 435 857 418 q 701 453 781 453 l 119 453 l 119 597 l 704 597 q 819 616 781 597 q 857 664 857 635 l 857 767 q 693 833 857 833 l 78 833 l 78 978 l 693 978 q 1042 767 1042 978 l 1042 664 q 939 525 1042 572 q 1042 386 1042 475 l 1042 211 q 693 0 1042 0 l 78 0 z "},"4":{"ha":1260,"x_min":22,"x_max":1192,"o":"m 22 283 l 539 978 l 739 978 l 242 311 l 904 311 l 904 978 l 1089 978 l 1089 311 l 1192 311 l 1192 167 l 1089 167 l 1089 0 l 904 0 l 904 167 l 22 167 l 22 283 z "},"5":{"ha":1171,"x_min":85,"x_max":1090,"o":"m 269 833 l 269 644 l 742 644 q 1090 433 1090 644 l 1090 208 q 742 0 1090 0 l 85 0 l 85 144 l 742 144 q 906 208 906 144 l 906 433 q 742 500 906 500 l 85 500 l 85 978 l 1072 978 l 1072 833 l 269 833 z "},"6":{"ha":1272,"x_min":86,"x_max":1194,"o":"m 846 631 q 1194 419 1194 631 l 1194 208 q 846 0 1194 0 l 435 0 q 86 211 86 0 l 86 767 q 435 978 86 978 l 1147 978 l 1147 833 l 435 833 q 271 767 271 833 l 271 631 l 846 631 m 846 144 q 1010 208 1010 144 l 1010 419 q 846 486 1010 486 l 271 486 l 271 211 q 435 144 271 144 l 846 144 z "},"7":{"ha":1167,"x_min":46,"x_max":1140,"o":"m 46 978 l 1140 978 l 1140 861 l 489 0 l 279 0 l 932 833 l 46 833 l 46 978 z "},"8":{"ha":1283,"x_min":85,"x_max":1199,"o":"m 850 599 q 1014 663 1014 599 l 1014 767 q 850 833 1014 833 l 433 833 q 269 767 269 833 l 269 665 q 433 599 269 599 l 850 599 m 850 144 q 1014 208 1014 144 l 1014 388 q 850 454 1014 454 l 433 454 q 269 388 269 454 l 269 211 q 433 144 269 144 l 850 144 m 85 767 q 433 978 85 978 l 850 978 q 1199 767 1199 978 l 1199 663 q 1118 524 1199 572 q 1199 388 1199 475 l 1199 208 q 850 0 1199 0 l 433 0 q 85 211 85 0 l 85 388 q 163 526 85 478 q 85 665 85 574 l 85 767 z "},"9":{"ha":1271,"x_min":76,"x_max":1185,"o":"m 76 582 l 76 769 q 425 978 76 978 l 836 978 q 1185 767 1185 978 l 1185 211 q 836 0 1185 0 l 124 0 l 124 144 l 836 144 q 1000 211 1000 144 l 1000 371 l 425 371 q 76 582 76 371 m 425 833 q 261 769 261 833 l 261 582 q 425 515 261 515 l 1000 515 l 1000 767 q 836 833 1000 833 l 425 833 z "},"\"":{"ha":563,"x_min":82,"x_max":478,"o":"m 82 978 l 226 978 l 226 810 l 174 667 l 131 667 l 82 811 l 82 978 m 335 978 l 478 978 l 478 814 l 433 667 l 374 667 l 335 814 l 335 978 z "},"#":{"ha":819,"x_min":74,"x_max":754,"o":"m 338 679 l 490 679 l 490 832 l 338 832 l 338 679 m 74 679 l 213 679 l 213 832 l 74 832 l 74 957 l 213 957 l 213 1165 l 338 1165 l 338 957 l 490 957 l 490 1165 l 615 1165 l 615 957 l 754 957 l 754 832 l 615 832 l 615 679 l 754 679 l 754 554 l 615 554 l 615 346 l 490 346 l 490 554 l 338 554 l 338 346 l 213 346 l 213 554 l 74 554 l 74 679 z "},"$":{"ha":1093,"x_min":43,"x_max":1049,"o":"m 454 139 l 76 139 l 76 283 l 700 283 q 864 350 864 283 q 700 417 864 417 l 392 417 q 43 628 43 417 q 392 839 43 839 l 454 839 l 454 978 l 639 978 l 639 839 l 1017 839 l 1017 694 l 392 694 q 228 628 228 694 q 392 561 228 561 l 700 561 q 1049 350 1049 561 q 700 139 1049 139 l 639 139 l 639 0 l 454 0 l 454 139 z "},"%":{"ha":1167,"x_min":43,"x_max":1071,"o":"m 835 125 q 946 233 946 125 q 835 347 946 347 q 724 236 724 347 q 835 125 724 125 m 279 819 q 390 928 390 819 q 279 1042 390 1042 q 168 931 168 1042 q 279 819 168 819 m 303 0 l 161 0 l 810 1167 l 953 1167 l 303 0 m 43 931 q 279 1167 43 1167 q 515 931 515 1167 q 279 694 515 694 q 43 931 43 694 m 599 236 q 835 472 599 472 q 1071 236 1071 472 q 835 0 1071 0 q 599 236 599 0 z "},"&":{"ha":1065,"x_min":83,"x_max":1000,"o":"m 268 211 q 432 144 268 144 l 708 144 l 708 444 l 421 444 q 306 426 344 444 q 268 378 268 407 l 268 211 m 954 978 l 954 833 l 432 833 q 268 767 268 833 l 268 656 q 306 606 268 624 q 422 589 344 589 l 1000 589 l 1000 444 l 894 444 l 894 0 l 432 0 q 83 211 83 0 l 83 378 q 144 517 83 468 q 83 656 83 567 l 83 767 q 432 978 83 978 l 954 978 z "},"'":{"ha":315,"x_min":69,"x_max":240,"o":"m 69 978 l 240 978 l 240 810 l 190 667 l 118 667 l 69 811 l 69 978 z "},"(":{"ha":418,"x_min":43,"x_max":371,"o":"m 368 1089 q 172 490 172 754 q 219 208 172 354 q 371 -111 267 61 l 228 -111 q 87 197 131 50 q 43 492 43 343 q 89 785 43 638 q 224 1089 135 932 l 368 1089 z "},")":{"ha":418,"x_min":47,"x_max":375,"o":"m 50 -111 q 246 488 246 224 q 199 770 246 624 q 47 1089 151 917 l 190 1089 q 331 781 288 928 q 375 486 375 635 q 329 193 375 340 q 194 -111 283 46 l 50 -111 z "},"*":{"ha":519,"x_min":39,"x_max":479,"o":"m 206 833 l 206 979 l 315 979 l 315 833 l 440 885 l 479 778 l 349 726 l 425 622 l 339 551 l 260 657 l 179 549 l 92 617 l 174 726 l 39 778 l 75 885 l 206 833 z "},"+":{"ha":556,"x_min":28,"x_max":526,"o":"m 28 422 l 206 422 l 206 589 l 349 589 l 349 422 l 526 422 l 526 278 l 349 278 l 349 111 l 206 111 l 206 278 l 28 278 l 28 422 z "},",":{"ha":363,"x_min":74,"x_max":292,"o":"m 74 181 l 292 181 l 292 36 l 224 -101 l 106 -101 l 144 0 l 74 0 l 74 181 z "},"-":{"ha":778,"x_min":90,"x_max":686,"o":"m 90 538 l 686 538 l 686 393 l 90 393 l 90 538 z "},".":{"ha":403,"x_min":90,"x_max":308,"o":"m 90 181 l 308 181 l 308 0 l 90 0 l 90 181 z "},"/":{"ha":708,"x_min":10,"x_max":699,"o":"m 699 978 l 160 0 l 10 0 l 549 978 l 699 978 z "},":":{"ha":343,"x_min":90,"x_max":281,"o":"m 90 458 l 281 458 l 281 278 l 90 278 l 90 458 m 90 181 l 281 181 l 281 0 l 90 0 l 90 181 z "},";":{"ha":340,"x_min":72,"x_max":263,"o":"m 72 458 l 263 458 l 263 278 l 72 278 l 72 458 m 72 181 l 263 181 l 263 36 l 194 -101 l 104 -101 l 143 0 l 72 0 l 72 181 z "},"<":{"ha":674,"x_min":10,"x_max":606,"o":"m 10 401 l 10 532 l 606 774 l 606 607 l 213 467 l 606 324 l 606 157 l 10 401 z "},"=":{"ha":746,"x_min":90,"x_max":686,"o":"m 90 385 l 686 385 l 686 240 l 90 240 l 90 385 m 90 690 l 686 690 l 686 546 l 90 546 l 90 690 z "},">":{"ha":696,"x_min":90,"x_max":686,"o":"m 686 529 l 686 399 l 90 157 l 90 324 l 481 464 l 90 607 l 90 774 l 686 529 z "},"?":{"ha":935,"x_min":64,"x_max":911,"o":"m 563 589 q 726 656 726 589 l 726 767 q 563 833 726 833 l 64 833 l 64 978 l 563 978 q 911 767 911 978 l 911 656 q 563 444 911 444 l 500 444 q 336 378 336 444 l 336 274 l 179 274 l 179 378 q 500 589 179 589 l 563 589 m 178 181 l 335 181 l 335 0 l 178 0 l 178 181 z "},"@":{"ha":1179,"x_min":83,"x_max":1111,"o":"m 319 1042 q 208 931 208 1042 l 208 236 q 319 125 208 125 l 903 125 l 903 0 l 319 0 q 83 236 83 0 l 83 931 q 319 1167 83 1167 l 875 1167 q 1111 933 1111 1167 l 1111 208 l 986 208 l 986 933 q 875 1042 986 1042 l 319 1042 m 361 833 l 361 958 l 667 958 q 903 722 903 958 l 903 444 q 667 208 903 208 l 528 208 q 292 444 292 208 l 292 447 q 528 681 292 681 l 778 681 l 778 722 q 667 833 778 833 l 361 833 m 417 447 l 417 444 q 528 333 417 333 l 667 333 q 778 444 778 333 l 778 556 l 528 556 q 417 447 417 556 z "},"A":{"ha":1431,"x_min":0,"x_max":1431,"o":"m 1431 0 l 1231 0 l 718 799 l 197 0 l 0 0 l 650 978 l 785 978 l 1431 0 z "},"B":{"ha":1282,"x_min":90,"x_max":1199,"o":"m 90 978 l 850 978 q 1199 767 1199 978 l 1199 674 q 1090 504 1199 551 q 1199 351 1199 454 l 1199 211 q 850 0 1199 0 l 90 0 l 90 978 m 850 144 q 1014 211 1014 144 l 1014 365 q 976 414 1014 396 q 860 432 938 432 l 275 432 l 275 144 l 850 144 m 275 833 l 275 576 l 863 576 q 976 595 938 576 q 1014 643 1014 614 l 1014 767 q 850 833 1014 833 l 275 833 z "},"C":{"ha":1256,"x_min":85,"x_max":1179,"o":"m 1179 144 l 1179 0 l 433 0 q 85 225 85 0 l 85 753 q 433 978 85 978 l 1179 978 l 1179 833 l 433 833 q 269 753 269 833 l 269 225 q 433 144 269 144 l 1179 144 z "},"D":{"ha":1433,"x_min":90,"x_max":1349,"o":"m 90 978 l 944 978 q 1349 711 1349 978 l 1349 264 q 944 0 1349 0 l 90 0 l 90 978 m 944 144 q 1164 264 1164 144 l 1164 711 q 944 833 1164 833 l 275 833 l 275 144 l 944 144 z "},"E":{"ha":1172,"x_min":90,"x_max":1096,"o":"m 275 444 l 275 144 l 1096 144 l 1096 0 l 90 0 l 90 978 l 1096 978 l 1096 833 l 275 833 l 275 589 l 1054 589 l 1054 444 l 275 444 z "},"F":{"ha":1106,"x_min":90,"x_max":1096,"o":"m 275 403 l 275 0 l 90 0 l 90 978 l 1096 978 l 1096 833 l 275 833 l 275 547 l 1040 547 l 1040 403 l 275 403 z "},"G":{"ha":1296,"x_min":86,"x_max":1215,"o":"m 1031 533 l 1215 533 l 1215 208 q 867 0 1215 0 l 435 0 q 86 211 86 0 l 86 767 q 435 978 86 978 l 1200 978 l 1200 833 l 435 833 q 271 767 271 833 l 271 211 q 435 144 271 144 l 867 144 q 1031 208 1031 144 l 1031 533 z "},"H":{"ha":1351,"x_min":90,"x_max":1260,"o":"m 1075 444 l 275 444 l 275 0 l 90 0 l 90 978 l 275 978 l 275 589 l 1075 589 l 1075 978 l 1260 978 l 1260 0 l 1075 0 l 1075 444 z "},"I":{"ha":371,"x_min":90,"x_max":275,"o":"m 90 978 l 275 978 l 275 0 l 90 0 l 90 978 z "},"J":{"ha":674,"x_min":13,"x_max":586,"o":"m 13 0 l 13 144 l 238 144 q 401 208 401 144 l 401 978 l 586 978 l 586 208 q 238 0 586 0 l 13 0 z "},"K":{"ha":1193,"x_min":90,"x_max":1176,"o":"m 90 0 l 90 978 l 275 978 l 275 581 l 594 581 l 957 978 l 1176 978 l 742 522 l 1175 0 l 958 0 l 585 436 l 275 436 l 275 0 l 90 0 z "},"L":{"ha":1099,"x_min":64,"x_max":1043,"o":"m 64 978 l 250 978 l 250 144 l 1043 144 l 1043 0 l 64 0 l 64 978 z "},"M":{"ha":1669,"x_min":90,"x_max":1579,"o":"m 90 978 l 263 978 l 843 179 l 1421 978 l 1579 978 l 1579 0 l 1401 0 l 1401 679 l 911 0 l 760 0 l 268 678 l 268 0 l 90 0 l 90 978 z "},"N":{"ha":1476,"x_min":90,"x_max":1385,"o":"m 265 744 l 265 0 l 90 0 l 90 978 l 236 978 l 1210 228 l 1210 978 l 1385 978 l 1385 0 l 1239 0 l 265 744 z "},"O":{"ha":1424,"x_min":86,"x_max":1344,"o":"m 996 144 q 1160 208 1160 144 l 1160 767 q 996 833 1160 833 l 435 833 q 271 767 271 833 l 271 211 q 435 144 271 144 l 996 144 m 86 767 q 435 978 86 978 l 996 978 q 1344 767 1344 978 l 1344 208 q 996 0 1344 0 l 435 0 q 86 211 86 0 l 86 767 z "},"P":{"ha":1221,"x_min":90,"x_max":1199,"o":"m 90 0 l 90 978 l 850 978 q 1199 767 1199 978 l 1199 572 q 850 361 1199 361 l 275 361 l 275 0 l 90 0 m 275 833 l 275 506 l 850 506 q 1014 572 1014 506 l 1014 767 q 850 833 1014 833 l 275 833 z "},"Q":{"ha":1390,"x_min":51,"x_max":1310,"o":"m 51 767 q 400 978 51 978 l 961 978 q 1310 767 1310 978 l 1310 208 q 1089 8 1310 43 l 1213 -217 l 1015 -217 l 899 0 l 400 0 q 51 211 51 0 l 51 767 m 961 144 q 1125 208 1125 144 l 1125 767 q 961 833 1125 833 l 400 833 q 236 767 236 833 l 236 211 q 400 144 236 144 l 961 144 z "},"R":{"ha":1293,"x_min":90,"x_max":1213,"o":"m 90 0 l 90 978 l 864 978 q 1213 767 1213 978 l 1213 647 q 971 442 1213 471 l 1203 0 l 1006 0 l 776 436 l 275 436 l 275 0 l 90 0 m 275 833 l 275 581 l 864 581 q 1028 647 1028 581 l 1028 767 q 864 833 1028 833 l 275 833 z "},"S":{"ha":1369,"x_min":76,"x_max":1293,"o":"m 944 593 q 1293 382 1293 593 l 1293 208 q 944 0 1293 0 l 110 0 l 110 144 l 944 144 q 1108 208 1108 144 l 1108 382 q 944 449 1108 449 l 425 449 q 76 660 76 449 l 76 767 q 425 978 76 978 l 1232 978 l 1232 833 l 425 833 q 261 767 261 833 l 261 660 q 425 593 261 593 l 944 593 z "},"T":{"ha":1261,"x_min":32,"x_max":1228,"o":"m 32 978 l 1228 978 l 1228 833 l 729 833 l 729 0 l 544 0 l 544 833 l 32 833 l 32 978 z "},"U":{"ha":1393,"x_min":88,"x_max":1304,"o":"m 956 144 q 1119 250 1119 144 l 1119 978 l 1304 978 l 1304 250 q 956 0 1304 0 l 436 0 q 88 253 88 0 l 88 978 l 272 978 l 272 253 q 436 144 272 144 l 956 144 z "},"V":{"ha":1431,"x_min":0,"x_max":1431,"o":"m 785 0 l 650 0 l 0 978 l 201 978 l 721 179 l 1235 978 l 1431 978 l 785 0 z "},"W":{"ha":1860,"x_min":0,"x_max":1860,"o":"m 1408 0 l 1269 0 l 931 750 l 585 0 l 450 0 l 0 978 l 178 978 l 518 228 l 861 978 l 999 978 l 1338 228 l 1681 978 l 1860 978 l 1408 0 z "},"X":{"ha":1383,"x_min":17,"x_max":1367,"o":"m 692 586 l 1126 978 l 1364 978 l 810 496 l 1367 0 l 1128 0 l 692 390 l 258 0 l 17 0 l 575 489 l 17 978 l 257 978 l 692 586 z "},"Y":{"ha":1436,"x_min":0,"x_max":1436,"o":"m 628 397 l 0 978 l 236 978 l 719 531 l 1203 978 l 1436 978 l 813 397 l 813 0 l 628 0 l 628 397 z "},"Z":{"ha":1442,"x_min":90,"x_max":1404,"o":"m 90 978 l 1404 978 l 1404 853 l 411 158 l 1404 158 l 1404 0 l 90 0 l 90 125 l 1079 819 l 90 819 l 90 978 z "},"[":{"ha":360,"x_min":90,"x_max":322,"o":"m 219 1000 l 219 -25 l 322 -25 l 322 -111 l 90 -111 l 90 1089 l 322 1089 l 322 1000 l 219 1000 z "},"\\":{"ha":707,"x_min":8,"x_max":697,"o":"m 158 978 l 697 0 l 547 0 l 8 978 l 158 978 z "},"]":{"ha":363,"x_min":36,"x_max":268,"o":"m 139 -22 l 139 1003 l 36 1003 l 36 1089 l 268 1089 l 268 -111 l 36 -111 l 36 -22 l 139 -22 z "},"^":{"ha":933,"x_min":39,"x_max":894,"o":"m 540 811 l 894 333 l 676 333 l 464 621 l 251 333 l 39 333 l 390 811 l 540 811 z "},"_":{"ha":904,"x_min":0,"x_max":904,"o":"m 0 -50 l 904 -50 l 904 -194 l 0 -194 l 0 -50 z "},"`":{"ha":561,"x_min":32,"x_max":525,"o":"m 32 1157 l 525 1024 l 525 869 l 32 1003 l 32 1157 z "},"{":{"ha":408,"x_min":21,"x_max":356,"o":"m 21 536 q 124 617 124 536 l 124 933 q 292 1089 124 1089 l 356 1089 l 356 1000 q 253 961 253 1000 l 253 617 q 160 486 253 535 q 253 358 253 439 l 253 17 q 356 -22 253 -22 l 356 -111 l 292 -111 q 124 44 124 -111 l 124 358 q 21 440 124 440 l 21 536 z "},"|":{"ha":317,"x_min":90,"x_max":219,"o":"m 90 1089 l 219 1089 l 219 -111 l 90 -111 l 90 1089 z "},"}":{"ha":410,"x_min":53,"x_max":388,"o":"m 388 442 q 285 361 285 442 l 285 44 q 117 -111 285 -111 l 53 -111 l 53 -22 q 156 17 156 -22 l 156 361 q 249 492 156 443 q 156 619 156 539 l 156 961 q 53 1000 156 1000 l 53 1089 l 117 1089 q 285 933 285 1089 l 285 619 q 388 538 285 538 l 388 442 z "},"~":{"ha":1051,"x_min":60,"x_max":990,"o":"m 990 503 l 853 438 q 725 415 786 415 q 630 423 679 415 q 532 440 581 431 l 515 443 l 515 442 q 429 457 475 449 q 342 465 383 465 q 285 457 314 465 q 222 426 256 449 l 60 526 l 199 592 q 326 614 269 614 q 427 606 371 614 q 536 585 483 597 l 536 586 q 620 572 578 579 q 710 564 663 564 q 767 572 738 564 q 829 603 796 581 l 990 503 z "},"€":{"ha":1061,"x_min":10,"x_max":1001,"o":"m 38 672 l 140 672 l 140 767 q 489 978 140 978 l 976 978 l 910 833 l 489 833 q 325 767 325 833 l 325 672 l 836 672 l 776 542 l 325 542 l 325 436 l 728 436 l 668 306 l 325 306 l 325 211 q 489 144 325 144 l 1001 144 l 1001 0 l 489 0 q 140 211 140 0 l 140 306 l 10 306 l 38 436 l 140 436 l 140 542 l 10 542 l 38 672 z "},"‚":{"ha":296,"x_min":68,"x_max":231,"o":"m 68 181 l 231 181 l 231 36 l 163 -101 l 100 -101 l 139 0 l 68 0 l 68 181 z "},"ƒ":{"ha":1447,"x_min":10,"x_max":1440,"o":"m 1440 0 l 1242 0 l 1063 278 l 388 278 l 208 0 l 10 0 l 660 978 l 794 978 l 1440 0 m 483 422 l 969 422 l 728 799 l 483 422 z "},"„":{"ha":586,"x_min":82,"x_max":507,"o":"m 344 181 l 507 181 l 507 36 l 439 -101 l 376 -101 l 415 0 l 344 0 l 344 181 m 82 181 l 244 181 l 244 36 l 176 -101 l 114 -101 l 153 0 l 82 0 l 82 181 z "},"…":{"ha":1385,"x_min":90,"x_max":1243,"o":"m 1025 225 l 1243 225 l 1243 44 l 1025 44 l 1025 225 m 572 225 l 790 225 l 790 44 l 572 44 l 572 225 m 90 225 l 308 225 l 308 44 l 90 44 l 90 225 z "},"†":{"ha":692,"x_min":-19,"x_max":711,"o":"m 250 743 l -19 833 l 251 924 l 319 1344 l 372 1344 l 440 924 l 711 833 l 442 743 l 374 -214 l 318 -214 l 250 743 z "},"‡":{"ha":853,"x_min":49,"x_max":783,"o":"m 510 994 l 783 926 l 783 879 l 514 811 l 514 368 l 783 301 l 783 254 l 510 186 l 442 -156 l 392 -156 l 322 186 l 50 254 l 50 301 l 319 368 l 319 813 l 49 893 l 51 940 l 322 996 l 392 1336 l 442 1336 l 510 994 z "},"ˆ":{"ha":706,"x_min":43,"x_max":661,"o":"m 353 1024 l 246 894 l 43 894 l 281 1150 l 431 1150 l 661 894 l 463 894 l 353 1024 z "},"‰":{"ha":1693,"x_min":71,"x_max":1626,"o":"m 1390 125 q 1501 233 1501 125 q 1390 347 1501 347 q 1279 236 1279 347 q 1390 125 1279 125 m 863 125 q 974 233 974 125 q 863 347 974 347 q 751 236 751 347 q 863 125 751 125 m 307 819 q 418 928 418 819 q 307 1042 418 1042 q 196 931 196 1042 q 307 819 196 819 m 331 0 l 189 0 l 838 1167 l 981 1167 l 331 0 m 1154 236 q 1390 472 1154 472 q 1626 236 1626 472 q 1390 0 1626 0 q 1154 236 1154 0 m 71 931 q 307 1167 71 1167 q 543 931 543 1167 q 307 694 543 694 q 71 931 71 694 m 626 236 q 863 472 626 472 q 1099 236 1099 472 q 863 0 1099 0 q 626 236 626 0 z "},"Š":{"ha":1369,"x_min":76,"x_max":1293,"o":"m 944 593 q 1293 382 1293 593 l 1293 208 q 944 0 1293 0 l 110 0 l 110 144 l 944 144 q 1108 208 1108 144 l 1108 382 q 944 449 1108 449 l 425 449 q 76 660 76 449 l 76 767 q 425 978 76 978 l 1232 978 l 1232 833 l 425 833 q 261 767 261 833 l 261 660 q 425 593 261 593 l 944 593 m 604 1308 l 682 1219 l 764 1308 l 992 1308 l 756 1053 l 607 1053 l 376 1308 l 604 1308 z "},"‹":{"ha":472,"x_min":69,"x_max":403,"o":"m 69 524 l 403 772 l 403 615 l 201 467 l 403 314 l 403 158 l 69 410 l 69 524 z "},"Œ":{"ha":1632,"x_min":88,"x_max":1547,"o":"m 642 144 q 806 193 796 144 l 806 782 q 642 833 796 833 l 436 833 q 272 767 272 833 l 272 211 q 436 144 272 144 l 642 144 m 88 767 q 436 978 88 978 l 642 978 q 806 958 736 978 l 806 978 l 1547 978 l 1547 833 l 992 833 l 992 589 l 1547 589 l 1547 444 l 990 444 l 990 144 l 1547 144 l 1547 0 l 806 0 l 806 19 q 642 0 736 0 l 436 0 q 88 211 88 0 l 88 767 z "},"Ž":{"ha":1442,"x_min":90,"x_max":1404,"o":"m 90 978 l 1404 978 l 1404 853 l 411 158 l 1404 158 l 1404 0 l 90 0 l 90 125 l 1079 819 l 90 819 l 90 978 m 640 1308 l 718 1219 l 800 1308 l 1028 1308 l 792 1053 l 643 1053 l 413 1308 l 640 1308 z "},"‘":{"ha":335,"x_min":67,"x_max":258,"o":"m 258 796 l 67 796 l 67 940 l 136 1076 l 225 1076 l 188 976 l 258 976 l 258 796 z "},"’":{"ha":332,"x_min":72,"x_max":264,"o":"m 72 1076 l 264 1076 l 264 932 l 194 796 l 106 796 l 143 896 l 72 896 l 72 1076 z "},"“":{"ha":588,"x_min":79,"x_max":504,"o":"m 242 785 l 79 785 l 79 929 l 147 1067 l 210 1067 l 171 965 l 242 965 l 242 785 m 504 785 l 342 785 l 342 929 l 410 1067 l 472 1067 l 433 965 l 504 965 l 504 785 z "},"”":{"ha":588,"x_min":82,"x_max":507,"o":"m 344 1068 l 507 1068 l 507 924 l 439 786 l 376 786 l 415 888 l 344 888 l 344 1068 m 82 1068 l 244 1068 l 244 924 l 176 786 l 114 786 l 153 888 l 82 888 l 82 1068 z "},"•":{"ha":1082,"x_min":31,"x_max":1051,"o":"m 542 742 l 1051 264 l 31 264 l 542 742 z "},"–":{"ha":1074,"x_min":90,"x_max":982,"o":"m 90 422 l 982 422 l 982 278 l 90 278 l 90 422 z "},"—":{"ha":1803,"x_min":90,"x_max":1713,"o":"m 90 478 l 1713 478 l 1713 333 l 90 333 l 90 478 z "},"˜":{"ha":1054,"x_min":64,"x_max":990,"o":"m 990 975 l 857 906 q 788 886 821 892 q 718 881 754 881 q 624 888 678 881 q 518 904 569 894 l 518 903 q 434 917 479 910 q 350 924 389 924 q 292 915 322 924 q 225 882 261 906 l 64 975 l 199 1047 q 267 1065 232 1060 q 333 1069 301 1069 q 428 1063 375 1069 q 535 1046 482 1056 l 535 1047 l 579 1042 q 641 1032 610 1036 q 703 1028 672 1028 q 762 1037 732 1028 q 829 1069 792 1046 l 990 975 z "},"™":{"ha":1244,"x_min":89,"x_max":1175,"o":"m 89 976 l 547 976 l 547 846 l 388 846 l 388 365 l 253 365 l 253 846 l 89 846 l 89 976 m 617 976 l 738 976 l 896 590 l 1053 976 l 1175 976 l 1175 365 l 1040 365 l 1040 594 l 946 365 l 844 365 l 750 593 l 750 365 l 617 365 l 617 976 z "},"š":{"ha":1369,"x_min":76,"x_max":1293,"o":"m 944 593 q 1293 382 1293 593 l 1293 208 q 944 0 1293 0 l 110 0 l 110 144 l 944 144 q 1108 208 1108 144 l 1108 382 q 944 449 1108 449 l 425 449 q 76 660 76 449 l 76 767 q 425 978 76 978 l 1232 978 l 1232 833 l 425 833 q 261 767 261 833 l 261 660 q 425 593 261 593 l 944 593 m 604 1308 l 682 1219 l 764 1308 l 992 1308 l 756 1053 l 607 1053 l 376 1308 l 604 1308 z "},"›":{"ha":472,"x_min":69,"x_max":403,"o":"m 403 407 l 69 158 l 69 315 l 269 464 l 69 617 l 69 772 l 403 521 l 403 407 z "},"œ":{"ha":1632,"x_min":88,"x_max":1547,"o":"m 642 144 q 806 193 796 144 l 806 782 q 642 833 796 833 l 436 833 q 272 767 272 833 l 272 211 q 436 144 272 144 l 642 144 m 88 767 q 436 978 88 978 l 642 978 q 806 958 736 978 l 806 978 l 1547 978 l 1547 833 l 992 833 l 992 589 l 1547 589 l 1547 444 l 990 444 l 990 144 l 1547 144 l 1547 0 l 806 0 l 806 19 q 642 0 736 0 l 436 0 q 88 211 88 0 l 88 767 z "},"Ÿ":{"ha":1436,"x_min":0,"x_max":1436,"o":"m 628 397 l 0 978 l 236 978 l 719 531 l 1203 978 l 1436 978 l 813 397 l 813 0 l 628 0 l 628 397 m 825 1253 l 1057 1253 l 1057 1053 l 825 1053 l 825 1253 m 379 1253 l 611 1253 l 611 1053 l 379 1053 l 379 1253 z "},"¢":{"ha":961,"x_min":79,"x_max":881,"o":"m 436 256 l 436 556 l 428 556 q 264 489 264 556 l 264 322 q 428 256 264 256 l 436 256 m 436 111 l 428 111 q 79 322 79 111 l 79 489 q 428 700 79 700 l 436 700 l 436 811 l 622 811 l 622 700 l 881 700 l 881 556 l 622 556 l 622 256 l 881 256 l 881 111 l 622 111 l 622 0 l 436 0 l 436 111 z "},"£":{"ha":1040,"x_min":58,"x_max":961,"o":"m 58 589 l 161 589 l 161 767 q 510 978 161 978 l 961 978 l 961 833 l 510 833 q 346 767 346 833 l 346 589 l 551 589 l 551 444 l 346 444 l 346 144 l 961 144 l 961 0 l 161 0 l 161 444 l 58 444 l 58 589 z "},"¥":{"ha":1674,"x_min":89,"x_max":1525,"o":"m 717 442 l 89 1022 l 325 1022 l 808 575 l 1292 1022 l 1525 1022 l 901 442 l 901 44 l 717 44 l 717 442 m 528 346 l 1124 346 l 1124 201 l 528 201 l 528 346 m 528 651 l 1124 651 l 1124 507 l 528 507 l 528 651 z "},"¦":{"ha":367,"x_min":90,"x_max":275,"o":"m 275 611 l 90 611 l 90 1089 l 275 1089 l 275 611 m 90 478 l 275 478 l 275 -111 l 90 -111 l 90 478 z "},"§":{"ha":1128,"x_min":61,"x_max":1067,"o":"m 410 556 q 246 489 246 556 q 283 441 246 460 q 390 422 319 422 l 718 422 q 882 489 882 422 q 718 556 882 556 l 410 556 m 410 278 q 61 489 61 278 q 121 626 61 579 q 61 767 61 674 q 410 978 61 978 l 989 978 l 989 833 l 410 833 q 246 767 246 833 q 410 700 246 700 l 718 700 q 1067 489 1067 700 q 1006 350 1067 399 q 1067 211 1067 300 q 718 0 1067 0 l 103 0 l 103 144 l 718 144 q 882 211 882 144 q 718 278 882 278 l 410 278 z "},"¨":{"ha":860,"x_min":90,"x_max":768,"o":"m 536 1094 l 768 1094 l 768 894 l 536 894 l 536 1094 m 90 1094 l 322 1094 l 322 894 l 90 894 l 90 1094 z "},"©":{"ha":1421,"x_min":86,"x_max":1333,"o":"m 1011 144 q 1176 208 1176 144 l 1176 767 q 1011 833 1176 833 l 407 833 q 243 767 243 833 l 243 211 q 407 144 243 144 l 1011 144 m 86 767 q 407 978 86 978 l 1011 978 q 1333 767 1333 978 l 1333 208 q 1011 0 1333 0 l 407 0 q 86 211 86 0 l 86 767 m 949 361 l 949 250 l 588 250 q 411 414 411 250 l 411 558 q 588 722 411 722 l 949 722 l 949 611 l 629 611 q 546 558 546 611 l 546 414 q 629 361 546 361 l 949 361 z "},"ª":{"ha":542,"x_min":68,"x_max":471,"o":"m 331 656 q 343 668 343 656 l 343 708 l 208 708 q 182 679 182 708 q 208 656 182 656 l 331 656 m 99 849 l 99 978 l 331 978 q 471 836 471 978 l 471 682 q 331 540 471 540 l 208 540 q 68 682 68 540 l 68 683 q 208 810 68 810 l 343 810 l 343 832 q 325 849 343 849 l 99 849 z "},"«":{"ha":750,"x_min":69,"x_max":681,"o":"m 347 524 l 681 772 l 681 615 l 479 467 l 681 314 l 681 158 l 347 410 l 347 524 m 69 524 l 403 772 l 403 615 l 201 467 l 403 314 l 403 158 l 69 410 l 69 524 z "},"®":{"ha":1275,"x_min":83,"x_max":1192,"o":"m 885 314 q 1085 454 1085 314 l 1085 719 q 885 864 1085 864 l 383 864 q 183 719 183 864 l 183 457 q 383 314 183 314 l 885 314 m 83 724 q 432 935 83 935 l 843 935 q 1192 724 1192 935 l 1192 443 q 843 235 1192 235 l 432 235 q 83 446 83 235 l 83 724 m 365 407 l 365 774 l 757 774 q 935 694 935 774 l 935 650 q 811 572 935 583 l 929 407 l 829 407 l 713 571 l 458 571 l 458 407 l 365 407 m 458 719 l 458 625 l 757 625 q 840 650 840 625 l 840 694 q 757 719 840 719 l 458 719 z "},"¯":{"ha":778,"x_min":90,"x_max":686,"o":"m 90 1128 l 686 1128 l 686 983 l 90 983 l 90 1128 z "},"°":{"ha":611,"x_min":69,"x_max":542,"o":"m 306 750 q 417 858 417 750 q 306 972 417 972 q 194 861 194 972 q 306 750 194 750 m 69 861 q 306 1097 69 1097 q 542 861 542 1097 q 306 625 542 625 q 69 861 69 625 z "},"±":{"ha":801,"x_min":90,"x_max":686,"o":"m 140 553 l 318 553 l 318 719 l 461 719 l 461 553 l 639 553 l 639 408 l 461 408 l 461 242 l 318 242 l 318 408 l 140 408 l 140 553 m 90 172 l 686 172 l 686 28 l 90 28 l 90 172 z "},"²":{"ha":507,"x_min":65,"x_max":433,"o":"m 294 754 q 306 768 306 754 l 306 832 q 294 847 306 847 l 94 847 l 94 978 l 294 978 q 433 832 433 978 l 433 768 q 294 622 433 622 l 204 622 q 192 608 192 622 l 192 497 l 433 497 l 433 367 l 65 367 l 65 608 q 204 754 65 754 l 294 754 z "},"³":{"ha":507,"x_min":69,"x_max":438,"o":"m 69 367 l 69 497 l 299 497 q 310 513 310 497 l 310 608 q 299 622 310 622 l 69 622 l 69 754 l 301 754 q 310 768 310 754 l 310 832 q 299 847 310 847 l 69 847 l 69 978 l 299 978 q 438 832 438 978 l 438 768 q 433 724 438 743 q 418 688 428 704 q 438 608 438 653 l 438 513 q 299 367 438 367 l 69 367 z "},"´":{"ha":563,"x_min":36,"x_max":529,"o":"m 529 1014 l 36 881 l 36 1036 l 529 1168 l 529 1014 z "},"µ":{"ha":1472,"x_min":90,"x_max":1404,"o":"m 90 700 l 275 700 l 275 211 q 439 144 275 144 l 850 144 q 1014 204 1011 144 l 1014 700 l 1199 700 l 1199 44 q 1404 -22 1199 -22 l 1404 -167 q 1118 -118 1217 -167 q 1014 31 1019 -69 l 1014 19 q 850 0 944 0 l 439 0 q 275 19 350 0 l 275 -167 l 90 -167 l 90 700 z "},"¶":{"ha":993,"x_min":31,"x_max":901,"o":"m 31 722 q 379 978 31 978 l 901 978 l 901 0 l 717 0 l 717 722 l 564 722 l 564 0 l 378 0 l 378 833 q 215 722 215 832 l 31 722 z "},"¸":{"ha":503,"x_min":90,"x_max":433,"o":"m 90 -256 l 90 -161 l 275 -161 q 317 -122 317 -161 q 275 -83 317 -83 l 90 -83 l 90 0 l 254 0 q 433 -128 433 0 q 229 -256 433 -256 l 90 -256 z "},"¹":{"ha":294,"x_min":69,"x_max":229,"o":"m 229 365 l 118 365 l 118 831 q 69 846 118 846 l 69 976 q 229 831 229 976 l 229 365 z "},"»":{"ha":750,"x_min":69,"x_max":681,"o":"m 403 407 l 69 158 l 69 315 l 269 464 l 69 617 l 69 772 l 403 521 l 403 407 m 681 407 l 347 158 l 347 315 l 547 464 l 347 617 l 347 772 l 681 521 l 681 407 z "},"¼":{"ha":1093,"x_min":75,"x_max":1029,"o":"m 865 228 l 865 556 l 732 228 l 865 228 m 272 556 l 140 556 l 140 1021 q 75 1036 140 1036 l 75 1167 q 272 1021 272 1167 l 272 556 m 574 192 l 746 611 l 997 611 l 997 228 l 1029 228 l 1029 96 l 997 96 l 997 0 l 865 0 l 865 96 l 574 96 l 574 192 m 281 0 l 139 0 l 788 1167 l 931 1167 l 281 0 z "},"½":{"ha":1122,"x_min":69,"x_max":1040,"o":"m 268 556 l 135 556 l 135 1021 q 69 1036 135 1036 l 69 1167 q 268 1021 268 1167 l 268 556 m 892 388 q 907 401 907 388 l 907 465 q 892 481 907 481 l 676 481 l 676 611 l 892 611 q 1040 465 1040 611 l 1040 401 q 892 256 1040 256 l 793 256 q 778 242 778 256 l 778 131 l 1040 131 l 1040 0 l 644 0 l 644 242 q 793 388 644 388 l 892 388 m 286 0 l 144 0 l 793 1167 l 936 1167 l 286 0 z "},"¾":{"ha":1172,"x_min":69,"x_max":1111,"o":"m 944 228 l 944 556 l 806 228 l 944 228 m 69 556 l 69 686 l 317 686 q 332 701 332 686 l 332 797 q 317 811 332 808 l 69 811 l 69 943 l 319 943 q 332 957 332 943 l 332 1021 q 317 1036 332 1036 l 69 1036 l 69 1167 l 317 1167 q 465 1021 465 1167 l 465 957 q 446 876 465 907 q 465 797 465 846 l 465 701 q 317 556 465 556 l 69 556 m 649 188 l 824 611 l 1078 611 l 1078 228 l 1111 228 l 1111 96 l 1078 96 l 1078 0 l 944 0 l 944 96 l 649 96 l 649 188 m 369 0 l 228 0 l 876 1167 l 1019 1167 l 369 0 z "},"À":{"ha":1431,"x_min":0,"x_max":1431,"o":"m 1431 0 l 1231 0 l 718 799 l 197 0 l 0 0 l 650 978 l 785 978 l 1431 0 m 468 1315 l 961 1182 l 961 1028 l 468 1161 l 468 1315 z "},"Á":{"ha":1431,"x_min":0,"x_max":1431,"o":"m 1431 0 l 1231 0 l 718 799 l 197 0 l 0 0 l 650 978 l 785 978 l 1431 0 m 961 1172 l 468 1039 l 468 1194 l 961 1326 l 961 1172 z "},"Â":{"ha":1431,"x_min":0,"x_max":1431,"o":"m 1431 0 l 1231 0 l 718 799 l 197 0 l 0 0 l 650 978 l 785 978 l 1431 0 m 715 1182 l 608 1053 l 406 1053 l 643 1308 l 793 1308 l 1024 1053 l 825 1053 l 715 1182 z "},"Ã":{"ha":1431,"x_min":0,"x_max":1431,"o":"m 1431 0 l 1231 0 l 718 799 l 197 0 l 0 0 l 650 978 l 785 978 l 1431 0 m 1178 1133 l 1044 1064 q 975 1044 1008 1050 q 906 1039 942 1039 q 811 1046 865 1039 q 706 1063 757 1053 l 706 1061 q 622 1075 667 1068 q 538 1082 576 1082 q 479 1073 510 1082 q 413 1040 449 1064 l 251 1133 l 386 1206 q 454 1223 419 1218 q 521 1228 489 1228 q 616 1221 563 1228 q 722 1204 669 1214 l 722 1206 l 767 1200 q 828 1190 797 1194 q 890 1186 860 1186 q 949 1195 919 1186 q 1017 1228 979 1204 l 1178 1133 z "},"Ä":{"ha":1431,"x_min":0,"x_max":1431,"o":"m 1431 0 l 1231 0 l 718 799 l 197 0 l 0 0 l 650 978 l 785 978 l 1431 0 m 822 1253 l 1054 1253 l 1054 1053 l 822 1053 l 822 1253 m 376 1253 l 608 1253 l 608 1053 l 376 1053 l 376 1253 z "},"Å":{"ha":1431,"x_min":0,"x_max":1431,"o":"m 1431 0 l 1231 0 l 718 799 l 197 0 l 0 0 l 650 978 l 785 978 l 1431 0 m 714 1100 q 769 1147 769 1100 q 714 1196 769 1196 q 664 1150 664 1196 q 714 1100 664 1100 m 547 1150 q 714 1278 547 1278 q 883 1150 883 1278 q 714 1021 883 1021 q 547 1150 547 1021 z "},"Æ":{"ha":1872,"x_min":0,"x_max":1786,"o":"m 747 478 l 1003 478 l 1003 715 l 747 478 m 1003 0 l 1003 333 l 607 333 l 607 342 l 243 0 l 0 0 l 1032 978 l 1786 978 l 1786 833 l 1188 833 l 1188 478 l 1786 478 l 1786 333 l 1188 333 l 1188 144 l 1786 144 l 1786 0 l 1003 0 z "},"Ç":{"ha":1256,"x_min":85,"x_max":1179,"o":"m 1179 144 l 1179 0 l 433 0 q 85 225 85 0 l 85 753 q 433 978 85 978 l 1179 978 l 1179 833 l 433 833 q 269 753 269 833 l 269 225 q 433 144 269 144 l 1179 144 m 456 -256 l 456 -161 l 640 -161 q 682 -122 682 -161 q 640 -83 682 -83 l 456 -83 l 456 0 l 619 0 q 799 -128 799 0 q 594 -256 799 -256 l 456 -256 z "},"È":{"ha":1172,"x_min":90,"x_max":1096,"o":"m 275 444 l 275 144 l 1096 144 l 1096 0 l 90 0 l 90 978 l 1096 978 l 1096 833 l 275 833 l 275 589 l 1054 589 l 1054 444 l 275 444 m 339 1315 l 832 1182 l 832 1028 l 339 1161 l 339 1315 z "},"É":{"ha":1172,"x_min":90,"x_max":1096,"o":"m 275 444 l 275 144 l 1096 144 l 1096 0 l 90 0 l 90 978 l 1096 978 l 1096 833 l 275 833 l 275 589 l 1054 589 l 1054 444 l 275 444 m 832 1172 l 339 1039 l 339 1194 l 832 1326 l 832 1172 z "},"Ê":{"ha":1172,"x_min":90,"x_max":1096,"o":"m 275 444 l 275 144 l 1096 144 l 1096 0 l 90 0 l 90 978 l 1096 978 l 1096 833 l 275 833 l 275 589 l 1054 589 l 1054 444 l 275 444 m 586 1182 l 479 1053 l 276 1053 l 514 1308 l 664 1308 l 894 1053 l 696 1053 l 586 1182 z "},"Ë":{"ha":1172,"x_min":90,"x_max":1096,"o":"m 275 444 l 275 144 l 1096 144 l 1096 0 l 90 0 l 90 978 l 1096 978 l 1096 833 l 275 833 l 275 589 l 1054 589 l 1054 444 l 275 444 m 693 1253 l 925 1253 l 925 1053 l 693 1053 l 693 1253 m 247 1253 l 479 1253 l 479 1053 l 247 1053 l 247 1253 z "},"Ì":{"ha":371,"x_min":-60,"x_max":433,"o":"m 90 978 l 275 978 l 275 0 l 90 0 l 90 978 m -60 1315 l 433 1182 l 433 1028 l -60 1161 l -60 1315 z "},"Í":{"ha":371,"x_min":-60,"x_max":433,"o":"m 90 978 l 275 978 l 275 0 l 90 0 l 90 978 m 433 1172 l -60 1039 l -60 1194 l 433 1326 l 433 1172 z "},"Î":{"ha":371,"x_min":-122,"x_max":496,"o":"m 90 978 l 275 978 l 275 0 l 90 0 l 90 978 m 188 1182 l 81 1053 l -122 1053 l 115 1308 l 265 1308 l 496 1053 l 297 1053 l 188 1182 z "},"Ï":{"ha":371,"x_min":-151,"x_max":526,"o":"m 90 978 l 275 978 l 275 0 l 90 0 l 90 978 m 294 1253 l 526 1253 l 526 1053 l 294 1053 l 294 1253 m -151 1253 l 81 1253 l 81 1053 l -151 1053 l -151 1253 z "},"Ð":{"ha":1464,"x_min":0,"x_max":1381,"o":"m 0 574 l 122 574 l 122 978 l 976 978 q 1381 711 1381 978 l 1381 264 q 976 0 1381 0 l 122 0 l 122 429 l 0 429 l 0 574 m 976 144 q 1196 264 1196 144 l 1196 711 q 976 833 1196 833 l 307 833 l 307 574 l 511 574 l 511 429 l 307 429 l 307 144 l 976 144 z "},"Ñ":{"ha":1476,"x_min":90,"x_max":1385,"o":"m 265 744 l 265 0 l 90 0 l 90 978 l 236 978 l 1210 228 l 1210 978 l 1385 978 l 1385 0 l 1239 0 l 265 744 m 1201 1133 l 1068 1064 q 999 1044 1032 1050 q 929 1039 965 1039 q 835 1046 889 1039 q 729 1063 781 1053 l 729 1061 q 645 1075 690 1068 q 561 1082 600 1082 q 503 1073 533 1082 q 436 1040 472 1064 l 275 1133 l 410 1206 q 478 1223 443 1218 q 544 1228 513 1228 q 640 1221 586 1228 q 746 1204 693 1214 l 746 1206 l 790 1200 q 852 1190 821 1194 q 914 1186 883 1186 q 973 1195 943 1186 q 1040 1228 1003 1204 l 1201 1133 z "},"Ò":{"ha":1424,"x_min":86,"x_max":1344,"o":"m 996 144 q 1160 208 1160 144 l 1160 767 q 996 833 1160 833 l 435 833 q 271 767 271 833 l 271 211 q 435 144 271 144 l 996 144 m 86 767 q 435 978 86 978 l 996 978 q 1344 767 1344 978 l 1344 208 q 996 0 1344 0 l 435 0 q 86 211 86 0 l 86 767 m 465 1315 l 958 1182 l 958 1028 l 465 1161 l 465 1315 z "},"Ó":{"ha":1424,"x_min":86,"x_max":1344,"o":"m 996 144 q 1160 208 1160 144 l 1160 767 q 996 833 1160 833 l 435 833 q 271 767 271 833 l 271 211 q 435 144 271 144 l 996 144 m 86 767 q 435 978 86 978 l 996 978 q 1344 767 1344 978 l 1344 208 q 996 0 1344 0 l 435 0 q 86 211 86 0 l 86 767 m 958 1172 l 465 1039 l 465 1194 l 958 1326 l 958 1172 z "},"Ô":{"ha":1424,"x_min":86,"x_max":1344,"o":"m 996 144 q 1160 208 1160 144 l 1160 767 q 996 833 1160 833 l 435 833 q 271 767 271 833 l 271 211 q 435 144 271 144 l 996 144 m 86 767 q 435 978 86 978 l 996 978 q 1344 767 1344 978 l 1344 208 q 996 0 1344 0 l 435 0 q 86 211 86 0 l 86 767 m 713 1182 l 606 1053 l 403 1053 l 640 1308 l 790 1308 l 1021 1053 l 822 1053 l 713 1182 z "},"Õ":{"ha":1424,"x_min":86,"x_max":1344,"o":"m 996 144 q 1160 208 1160 144 l 1160 767 q 996 833 1160 833 l 435 833 q 271 767 271 833 l 271 211 q 435 144 271 144 l 996 144 m 86 767 q 435 978 86 978 l 996 978 q 1344 767 1344 978 l 1344 208 q 996 0 1344 0 l 435 0 q 86 211 86 0 l 86 767 m 1175 1133 l 1042 1064 q 972 1044 1006 1050 q 903 1039 939 1039 q 808 1046 863 1039 q 703 1063 754 1053 l 703 1061 q 619 1075 664 1068 q 535 1082 574 1082 q 476 1073 507 1082 q 410 1040 446 1064 l 249 1133 l 383 1206 q 451 1223 417 1218 q 518 1228 486 1228 q 613 1221 560 1228 q 719 1204 667 1214 l 719 1206 l 764 1200 q 826 1190 794 1194 q 888 1186 857 1186 q 947 1195 917 1186 q 1014 1228 976 1204 l 1175 1133 z "},"Ö":{"ha":1424,"x_min":86,"x_max":1344,"o":"m 996 144 q 1160 208 1160 144 l 1160 767 q 996 833 1160 833 l 435 833 q 271 767 271 833 l 271 211 q 435 144 271 144 l 996 144 m 86 767 q 435 978 86 978 l 996 978 q 1344 767 1344 978 l 1344 208 q 996 0 1344 0 l 435 0 q 86 211 86 0 l 86 767 m 818 1253 l 1050 1253 l 1050 1053 l 818 1053 l 818 1253 m 372 1253 l 604 1253 l 604 1053 l 372 1053 l 372 1253 z "},"×":{"ha":779,"x_min":69,"x_max":714,"o":"m 704 703 l 486 493 l 714 275 l 592 207 l 390 400 l 186 203 l 75 283 l 293 493 l 69 711 l 189 779 l 390 585 l 596 782 l 704 703 z "},"Ø":{"ha":1488,"x_min":86,"x_max":1400,"o":"m 1117 978 q 1400 767 1400 978 l 1400 208 q 1051 0 1400 0 l 428 0 q 86 211 86 1 l 86 767 q 435 978 86 978 l 1117 978 m 271 767 l 271 211 q 435 144 271 144 l 886 833 l 435 833 q 271 767 271 833 m 1051 144 q 1215 208 1215 144 l 1215 767 q 1049 833 1215 833 l 601 144 l 1051 144 z "},"Ù":{"ha":1393,"x_min":88,"x_max":1304,"o":"m 956 144 q 1119 250 1119 144 l 1119 978 l 1304 978 l 1304 250 q 956 0 1304 0 l 436 0 q 88 253 88 0 l 88 978 l 272 978 l 272 253 q 436 144 272 144 l 956 144 m 450 1315 l 943 1182 l 943 1028 l 450 1161 l 450 1315 z "},"Ú":{"ha":1393,"x_min":88,"x_max":1304,"o":"m 956 144 q 1119 250 1119 144 l 1119 978 l 1304 978 l 1304 250 q 956 0 1304 0 l 436 0 q 88 253 88 0 l 88 978 l 272 978 l 272 253 q 436 144 272 144 l 956 144 m 943 1172 l 450 1039 l 450 1194 l 943 1326 l 943 1172 z "},"Û":{"ha":1393,"x_min":88,"x_max":1304,"o":"m 956 144 q 1119 250 1119 144 l 1119 978 l 1304 978 l 1304 250 q 956 0 1304 0 l 436 0 q 88 253 88 0 l 88 978 l 272 978 l 272 253 q 436 144 272 144 l 956 144 m 697 1182 l 590 1053 l 388 1053 l 625 1308 l 775 1308 l 1006 1053 l 807 1053 l 697 1182 z "},"Ü":{"ha":1393,"x_min":88,"x_max":1304,"o":"m 956 144 q 1119 250 1119 144 l 1119 978 l 1304 978 l 1304 250 q 956 0 1304 0 l 436 0 q 88 253 88 0 l 88 978 l 272 978 l 272 253 q 436 144 272 144 l 956 144 m 803 1253 l 1035 1253 l 1035 1053 l 803 1053 l 803 1253 m 357 1253 l 589 1253 l 589 1053 l 357 1053 l 357 1253 z "},"Ý":{"ha":1436,"x_min":0,"x_max":1436,"o":"m 628 397 l 0 978 l 236 978 l 719 531 l 1203 978 l 1436 978 l 813 397 l 813 0 l 628 0 l 628 397 m 964 1172 l 471 1039 l 471 1194 l 964 1326 l 964 1172 z "},"Þ":{"ha":1026,"x_min":90,"x_max":994,"o":"m 275 667 l 275 256 l 644 256 q 808 322 808 256 l 808 600 q 644 667 808 667 l 275 667 m 90 978 l 275 978 l 275 811 l 644 811 q 994 600 994 811 l 994 322 q 644 111 994 111 l 275 111 l 275 0 l 90 0 l 90 978 z "},"ß":{"ha":2739,"x_min":76,"x_max":2663,"o":"m 944 593 q 1293 382 1293 593 l 1293 208 q 944 0 1293 0 l 110 0 l 110 144 l 944 144 q 1108 208 1108 144 l 1108 382 q 944 449 1108 449 l 425 449 q 76 660 76 449 l 76 767 q 425 978 76 978 l 1232 978 l 1232 833 l 425 833 q 261 767 261 833 l 261 660 q 425 593 261 593 l 944 593 m 2314 593 q 2663 382 2663 593 l 2663 208 q 2314 0 2663 0 l 1479 0 l 1479 144 l 2314 144 q 2478 208 2478 144 l 2478 382 q 2314 449 2478 449 l 1794 449 q 1446 660 1446 449 l 1446 767 q 1794 978 1446 978 l 2601 978 l 2601 833 l 1794 833 q 1631 767 1631 833 l 1631 660 q 1794 593 1631 593 l 2314 593 z "},"à":{"ha":1431,"x_min":0,"x_max":1431,"o":"m 1431 0 l 1231 0 l 718 799 l 197 0 l 0 0 l 650 978 l 785 978 l 1431 0 m 468 1315 l 961 1182 l 961 1028 l 468 1161 l 468 1315 z "},"á":{"ha":1431,"x_min":0,"x_max":1431,"o":"m 1431 0 l 1231 0 l 718 799 l 197 0 l 0 0 l 650 978 l 785 978 l 1431 0 m 961 1172 l 468 1039 l 468 1194 l 961 1326 l 961 1172 z "},"â":{"ha":1431,"x_min":0,"x_max":1431,"o":"m 1431 0 l 1231 0 l 718 799 l 197 0 l 0 0 l 650 978 l 785 978 l 1431 0 m 715 1182 l 608 1053 l 406 1053 l 643 1308 l 793 1308 l 1024 1053 l 825 1053 l 715 1182 z "},"ã":{"ha":1431,"x_min":0,"x_max":1431,"o":"m 1431 0 l 1231 0 l 718 799 l 197 0 l 0 0 l 650 978 l 785 978 l 1431 0 m 1178 1133 l 1044 1064 q 975 1044 1008 1050 q 906 1039 942 1039 q 811 1046 865 1039 q 706 1063 757 1053 l 706 1061 q 622 1075 667 1068 q 538 1082 576 1082 q 479 1073 510 1082 q 413 1040 449 1064 l 251 1133 l 386 1206 q 454 1223 419 1218 q 521 1228 489 1228 q 616 1221 563 1228 q 722 1204 669 1214 l 722 1206 l 767 1200 q 828 1190 797 1194 q 890 1186 860 1186 q 949 1195 919 1186 q 1017 1228 979 1204 l 1178 1133 z "},"ä":{"ha":1431,"x_min":0,"x_max":1431,"o":"m 1431 0 l 1231 0 l 718 799 l 197 0 l 0 0 l 650 978 l 785 978 l 1431 0 m 822 1253 l 1054 1253 l 1054 1053 l 822 1053 l 822 1253 m 376 1253 l 608 1253 l 608 1053 l 376 1053 l 376 1253 z "},"å":{"ha":1431,"x_min":0,"x_max":1431,"o":"m 1431 0 l 1231 0 l 718 799 l 197 0 l 0 0 l 650 978 l 785 978 l 1431 0 m 714 1100 q 769 1147 769 1100 q 714 1196 769 1196 q 664 1150 664 1196 q 714 1100 664 1100 m 547 1150 q 714 1278 547 1278 q 883 1150 883 1278 q 714 1021 883 1021 q 547 1150 547 1021 z "},"æ":{"ha":1872,"x_min":0,"x_max":1786,"o":"m 747 478 l 1003 478 l 1003 715 l 747 478 m 1003 0 l 1003 333 l 607 333 l 607 342 l 243 0 l 0 0 l 1032 978 l 1786 978 l 1786 833 l 1188 833 l 1188 478 l 1786 478 l 1786 333 l 1188 333 l 1188 144 l 1786 144 l 1786 0 l 1003 0 z "},"ç":{"ha":1256,"x_min":85,"x_max":1179,"o":"m 1179 144 l 1179 0 l 433 0 q 85 225 85 0 l 85 753 q 433 978 85 978 l 1179 978 l 1179 833 l 433 833 q 269 753 269 833 l 269 225 q 433 144 269 144 l 1179 144 m 456 -256 l 456 -161 l 640 -161 q 682 -122 682 -161 q 640 -83 682 -83 l 456 -83 l 456 0 l 619 0 q 799 -128 799 0 q 594 -256 799 -256 l 456 -256 z "},"è":{"ha":1172,"x_min":90,"x_max":1096,"o":"m 275 444 l 275 144 l 1096 144 l 1096 0 l 90 0 l 90 978 l 1096 978 l 1096 833 l 275 833 l 275 589 l 1054 589 l 1054 444 l 275 444 m 339 1315 l 832 1182 l 832 1028 l 339 1161 l 339 1315 z "},"é":{"ha":1172,"x_min":90,"x_max":1096,"o":"m 275 444 l 275 144 l 1096 144 l 1096 0 l 90 0 l 90 978 l 1096 978 l 1096 833 l 275 833 l 275 589 l 1054 589 l 1054 444 l 275 444 m 832 1172 l 339 1039 l 339 1194 l 832 1326 l 832 1172 z "},"ê":{"ha":1172,"x_min":90,"x_max":1096,"o":"m 275 444 l 275 144 l 1096 144 l 1096 0 l 90 0 l 90 978 l 1096 978 l 1096 833 l 275 833 l 275 589 l 1054 589 l 1054 444 l 275 444 m 586 1182 l 479 1053 l 276 1053 l 514 1308 l 664 1308 l 894 1053 l 696 1053 l 586 1182 z "},"ë":{"ha":1172,"x_min":90,"x_max":1096,"o":"m 275 444 l 275 144 l 1096 144 l 1096 0 l 90 0 l 90 978 l 1096 978 l 1096 833 l 275 833 l 275 589 l 1054 589 l 1054 444 l 275 444 m 693 1253 l 925 1253 l 925 1053 l 693 1053 l 693 1253 m 247 1253 l 479 1253 l 479 1053 l 247 1053 l 247 1253 z "},"ì":{"ha":371,"x_min":-60,"x_max":433,"o":"m 90 978 l 275 978 l 275 0 l 90 0 l 90 978 m -60 1315 l 433 1182 l 433 1028 l -60 1161 l -60 1315 z "},"í":{"ha":371,"x_min":-60,"x_max":433,"o":"m 90 978 l 275 978 l 275 0 l 90 0 l 90 978 m 433 1172 l -60 1039 l -60 1194 l 433 1326 l 433 1172 z "},"î":{"ha":371,"x_min":-122,"x_max":496,"o":"m 90 978 l 275 978 l 275 0 l 90 0 l 90 978 m 188 1182 l 81 1053 l -122 1053 l 115 1308 l 265 1308 l 496 1053 l 297 1053 l 188 1182 z "},"ï":{"ha":371,"x_min":-151,"x_max":526,"o":"m 90 978 l 275 978 l 275 0 l 90 0 l 90 978 m 294 1253 l 526 1253 l 526 1053 l 294 1053 l 294 1253 m -151 1253 l 81 1253 l 81 1053 l -151 1053 l -151 1253 z "},"ð":{"ha":1464,"x_min":0,"x_max":1381,"o":"m 0 574 l 122 574 l 122 978 l 976 978 q 1381 711 1381 978 l 1381 264 q 976 0 1381 0 l 122 0 l 122 429 l 0 429 l 0 574 m 976 144 q 1196 264 1196 144 l 1196 711 q 976 833 1196 833 l 307 833 l 307 574 l 511 574 l 511 429 l 307 429 l 307 144 l 976 144 z "},"ñ":{"ha":1476,"x_min":90,"x_max":1385,"o":"m 265 744 l 265 0 l 90 0 l 90 978 l 236 978 l 1210 228 l 1210 978 l 1385 978 l 1385 0 l 1239 0 l 265 744 m 1201 1133 l 1068 1064 q 999 1044 1032 1050 q 929 1039 965 1039 q 835 1046 889 1039 q 729 1063 781 1053 l 729 1061 q 645 1075 690 1068 q 561 1082 600 1082 q 503 1073 533 1082 q 436 1040 472 1064 l 275 1133 l 410 1206 q 478 1223 443 1218 q 544 1228 513 1228 q 640 1221 586 1228 q 746 1204 693 1214 l 746 1206 l 790 1200 q 852 1190 821 1194 q 914 1186 883 1186 q 973 1195 943 1186 q 1040 1228 1003 1204 l 1201 1133 z "},"ò":{"ha":1424,"x_min":86,"x_max":1344,"o":"m 996 144 q 1160 208 1160 144 l 1160 767 q 996 833 1160 833 l 435 833 q 271 767 271 833 l 271 211 q 435 144 271 144 l 996 144 m 86 767 q 435 978 86 978 l 996 978 q 1344 767 1344 978 l 1344 208 q 996 0 1344 0 l 435 0 q 86 211 86 0 l 86 767 m 465 1315 l 958 1182 l 958 1028 l 465 1161 l 465 1315 z "},"ó":{"ha":1424,"x_min":86,"x_max":1344,"o":"m 996 144 q 1160 208 1160 144 l 1160 767 q 996 833 1160 833 l 435 833 q 271 767 271 833 l 271 211 q 435 144 271 144 l 996 144 m 86 767 q 435 978 86 978 l 996 978 q 1344 767 1344 978 l 1344 208 q 996 0 1344 0 l 435 0 q 86 211 86 0 l 86 767 m 958 1172 l 465 1039 l 465 1194 l 958 1326 l 958 1172 z "},"ô":{"ha":1424,"x_min":86,"x_max":1344,"o":"m 996 144 q 1160 208 1160 144 l 1160 767 q 996 833 1160 833 l 435 833 q 271 767 271 833 l 271 211 q 435 144 271 144 l 996 144 m 86 767 q 435 978 86 978 l 996 978 q 1344 767 1344 978 l 1344 208 q 996 0 1344 0 l 435 0 q 86 211 86 0 l 86 767 m 713 1182 l 606 1053 l 403 1053 l 640 1308 l 790 1308 l 1021 1053 l 822 1053 l 713 1182 z "},"õ":{"ha":1424,"x_min":86,"x_max":1344,"o":"m 996 144 q 1160 208 1160 144 l 1160 767 q 996 833 1160 833 l 435 833 q 271 767 271 833 l 271 211 q 435 144 271 144 l 996 144 m 86 767 q 435 978 86 978 l 996 978 q 1344 767 1344 978 l 1344 208 q 996 0 1344 0 l 435 0 q 86 211 86 0 l 86 767 m 1175 1133 l 1042 1064 q 972 1044 1006 1050 q 903 1039 939 1039 q 808 1046 863 1039 q 703 1063 754 1053 l 703 1061 q 619 1075 664 1068 q 535 1082 574 1082 q 476 1073 507 1082 q 410 1040 446 1064 l 249 1133 l 383 1206 q 451 1223 417 1218 q 518 1228 486 1228 q 613 1221 560 1228 q 719 1204 667 1214 l 719 1206 l 764 1200 q 826 1190 794 1194 q 888 1186 857 1186 q 947 1195 917 1186 q 1014 1228 976 1204 l 1175 1133 z "},"ö":{"ha":1424,"x_min":86,"x_max":1344,"o":"m 996 144 q 1160 208 1160 144 l 1160 767 q 996 833 1160 833 l 435 833 q 271 767 271 833 l 271 211 q 435 144 271 144 l 996 144 m 86 767 q 435 978 86 978 l 996 978 q 1344 767 1344 978 l 1344 208 q 996 0 1344 0 l 435 0 q 86 211 86 0 l 86 767 m 818 1253 l 1050 1253 l 1050 1053 l 818 1053 l 818 1253 m 372 1253 l 604 1253 l 604 1053 l 372 1053 l 372 1253 z "},"÷":{"ha":664,"x_min":33,"x_max":629,"o":"m 33 565 l 629 565 l 629 421 l 33 421 l 33 565 m 247 807 l 411 807 l 411 654 l 247 654 l 247 807 m 247 335 l 411 335 l 411 182 l 247 182 l 247 335 z "},"ø":{"ha":1488,"x_min":86,"x_max":1400,"o":"m 1117 978 q 1400 767 1400 978 l 1400 208 q 1051 0 1400 0 l 428 0 q 86 211 86 1 l 86 767 q 435 978 86 978 l 1117 978 m 271 767 l 271 211 q 435 144 271 144 l 886 833 l 435 833 q 271 767 271 833 m 1051 144 q 1215 208 1215 144 l 1215 767 q 1049 833 1215 833 l 601 144 l 1051 144 z "},"ù":{"ha":1393,"x_min":88,"x_max":1304,"o":"m 956 144 q 1119 250 1119 144 l 1119 978 l 1304 978 l 1304 250 q 956 0 1304 0 l 436 0 q 88 253 88 0 l 88 978 l 272 978 l 272 253 q 436 144 272 144 l 956 144 m 450 1315 l 943 1182 l 943 1028 l 450 1161 l 450 1315 z "},"ú":{"ha":1393,"x_min":88,"x_max":1304,"o":"m 956 144 q 1119 250 1119 144 l 1119 978 l 1304 978 l 1304 250 q 956 0 1304 0 l 436 0 q 88 253 88 0 l 88 978 l 272 978 l 272 253 q 436 144 272 144 l 956 144 m 943 1172 l 450 1039 l 450 1194 l 943 1326 l 943 1172 z "},"û":{"ha":1393,"x_min":88,"x_max":1304,"o":"m 956 144 q 1119 250 1119 144 l 1119 978 l 1304 978 l 1304 250 q 956 0 1304 0 l 436 0 q 88 253 88 0 l 88 978 l 272 978 l 272 253 q 436 144 272 144 l 956 144 m 697 1182 l 590 1053 l 388 1053 l 625 1308 l 775 1308 l 1006 1053 l 807 1053 l 697 1182 z "},"ü":{"ha":1393,"x_min":88,"x_max":1304,"o":"m 956 144 q 1119 250 1119 144 l 1119 978 l 1304 978 l 1304 250 q 956 0 1304 0 l 436 0 q 88 253 88 0 l 88 978 l 272 978 l 272 253 q 436 144 272 144 l 956 144 m 803 1253 l 1035 1253 l 1035 1053 l 803 1053 l 803 1253 m 357 1253 l 589 1253 l 589 1053 l 357 1053 l 357 1253 z "},"ý":{"ha":1436,"x_min":0,"x_max":1436,"o":"m 628 397 l 0 978 l 236 978 l 719 531 l 1203 978 l 1436 978 l 813 397 l 813 0 l 628 0 l 628 397 m 964 1172 l 471 1039 l 471 1194 l 964 1326 l 964 1172 z "},"þ":{"ha":1026,"x_min":90,"x_max":994,"o":"m 275 667 l 275 256 l 644 256 q 808 322 808 256 l 808 600 q 644 667 808 667 l 275 667 m 90 978 l 275 978 l 275 811 l 644 811 q 994 600 994 811 l 994 322 q 644 111 994 111 l 275 111 l 275 0 l 90 0 l 90 978 z "},"ÿ":{"ha":1436,"x_min":0,"x_max":1436,"o":"m 628 397 l 0 978 l 236 978 l 719 531 l 1203 978 l 1436 978 l 813 397 l 813 0 l 628 0 l 628 397 m 825 1253 l 1057 1253 l 1057 1053 l 825 1053 l 825 1253 m 379 1253 l 611 1253 l 611 1053 l 379 1053 l 379 1253 z "},"⁄":{"ha":1338,"x_min":47,"x_max":1290,"o":"m 285 0 l 47 0 l 1051 978 l 1290 978 l 285 0 z "},"˘":{"ha":832,"x_min":67,"x_max":765,"o":"m 415 1039 q 579 1103 579 1039 l 579 1150 l 765 1150 q 415 894 765 894 q 67 1150 67 894 l 251 1150 q 415 1039 251 1039 z "},"˙":{"ha":471,"x_min":90,"x_max":378,"o":"m 90 1094 l 378 1094 l 378 894 l 90 894 l 90 1094 z "},"˝":{"ha":904,"x_min":47,"x_max":860,"o":"m 339 894 l 614 1150 l 860 1150 l 585 894 l 339 894 m 47 894 l 322 1150 l 567 1150 l 292 894 l 47 894 z "},"˛":{"ha":476,"x_min":67,"x_max":410,"o":"m 271 -256 q 67 -128 67 -256 q 246 0 67 0 l 410 0 l 410 -83 l 225 -83 q 183 -122 183 -83 q 225 -161 183 -161 l 410 -161 l 410 -256 l 271 -256 z "},"ˇ":{"ha":696,"x_min":40,"x_max":656,"o":"m 268 1150 l 346 1061 l 428 1150 l 656 1150 l 419 894 l 271 894 l 40 1150 l 268 1150 z "},"Ł":{"ha":1253,"x_min":-46,"x_max":1238,"o":"m 714 568 l 415 439 l 415 144 l 1238 144 l 1238 0 l 232 0 l 232 360 l 104 307 l -46 410 l 232 529 l 232 978 l 415 978 l 415 608 l 563 671 l 714 568 z "},"ł":{"ha":1257,"x_min":-42,"x_max":1242,"o":"m 718 568 l 419 439 l 419 144 l 1242 144 l 1242 0 l 236 0 l 236 360 l 108 307 l -42 410 l 236 529 l 236 978 l 419 978 l 419 608 l 567 671 l 718 568 z "},"˚":{"ha":476,"x_min":69,"x_max":406,"o":"m 236 942 q 292 989 292 942 q 236 1038 292 1038 q 186 992 186 1038 q 236 942 186 942 m 69 992 q 236 1119 69 1119 q 406 992 406 1119 q 236 863 406 863 q 69 992 69 863 z "},"ı":{"ha":371,"x_min":90,"x_max":275,"o":"m 90 978 l 275 978 l 275 0 l 90 0 l 90 978 z "},"ž":{"ha":1442,"x_min":90,"x_max":1404,"o":"m 90 978 l 1404 978 l 1404 853 l 411 158 l 1404 158 l 1404 0 l 90 0 l 90 125 l 1079 819 l 90 819 l 90 978 m 640 1308 l 718 1219 l 800 1308 l 1028 1308 l 792 1053 l 643 1053 l 413 1308 l 640 1308 z "},"a":{"ha":1431,"x_min":0,"x_max":1431,"o":"m 1431 0 l 1231 0 l 718 799 l 197 0 l 0 0 l 650 978 l 785 978 l 1431 0 z "},"b":{"ha":1282,"x_min":90,"x_max":1199,"o":"m 90 978 l 850 978 q 1199 767 1199 978 l 1199 674 q 1090 504 1199 551 q 1199 351 1199 454 l 1199 211 q 850 0 1199 0 l 90 0 l 90 978 m 850 144 q 1014 211 1014 144 l 1014 365 q 976 414 1014 396 q 860 432 938 432 l 275 432 l 275 144 l 850 144 m 275 833 l 275 576 l 863 576 q 976 595 938 576 q 1014 643 1014 614 l 1014 767 q 850 833 1014 833 l 275 833 z "},"c":{"ha":1256,"x_min":85,"x_max":1179,"o":"m 1179 144 l 1179 0 l 433 0 q 85 225 85 0 l 85 753 q 433 978 85 978 l 1179 978 l 1179 833 l 433 833 q 269 753 269 833 l 269 225 q 433 144 269 144 l 1179 144 z "},"d":{"ha":1433,"x_min":90,"x_max":1349,"o":"m 90 978 l 944 978 q 1349 711 1349 978 l 1349 264 q 944 0 1349 0 l 90 0 l 90 978 m 944 144 q 1164 264 1164 144 l 1164 711 q 944 833 1164 833 l 275 833 l 275 144 l 944 144 z "},"e":{"ha":1172,"x_min":90,"x_max":1096,"o":"m 275 444 l 275 144 l 1096 144 l 1096 0 l 90 0 l 90 978 l 1096 978 l 1096 833 l 275 833 l 275 589 l 1054 589 l 1054 444 l 275 444 z "},"f":{"ha":1106,"x_min":90,"x_max":1096,"o":"m 275 403 l 275 0 l 90 0 l 90 978 l 1096 978 l 1096 833 l 275 833 l 275 547 l 1040 547 l 1040 403 l 275 403 z "},"g":{"ha":1296,"x_min":86,"x_max":1215,"o":"m 1031 533 l 1215 533 l 1215 208 q 867 0 1215 0 l 435 0 q 86 211 86 0 l 86 767 q 435 978 86 978 l 1200 978 l 1200 833 l 435 833 q 271 767 271 833 l 271 211 q 435 144 271 144 l 867 144 q 1031 208 1031 144 l 1031 533 z "},"h":{"ha":1351,"x_min":90,"x_max":1260,"o":"m 1075 444 l 275 444 l 275 0 l 90 0 l 90 978 l 275 978 l 275 589 l 1075 589 l 1075 978 l 1260 978 l 1260 0 l 1075 0 l 1075 444 z "},"i":{"ha":371,"x_min":90,"x_max":275,"o":"m 90 978 l 275 978 l 275 0 l 90 0 l 90 978 z "},"j":{"ha":674,"x_min":13,"x_max":586,"o":"m 13 0 l 13 144 l 238 144 q 401 208 401 144 l 401 978 l 586 978 l 586 208 q 238 0 586 0 l 13 0 z "},"k":{"ha":1193,"x_min":90,"x_max":1176,"o":"m 90 0 l 90 978 l 275 978 l 275 581 l 594 581 l 957 978 l 1176 978 l 742 522 l 1175 0 l 958 0 l 585 436 l 275 436 l 275 0 l 90 0 z "},"l":{"ha":1099,"x_min":64,"x_max":1043,"o":"m 64 978 l 250 978 l 250 144 l 1043 144 l 1043 0 l 64 0 l 64 978 z "},"m":{"ha":1669,"x_min":90,"x_max":1579,"o":"m 90 978 l 263 978 l 843 179 l 1421 978 l 1579 978 l 1579 0 l 1401 0 l 1401 679 l 911 0 l 760 0 l 268 678 l 268 0 l 90 0 l 90 978 z "},"n":{"ha":1476,"x_min":90,"x_max":1385,"o":"m 265 744 l 265 0 l 90 0 l 90 978 l 236 978 l 1210 228 l 1210 978 l 1385 978 l 1385 0 l 1239 0 l 265 744 z "},"o":{"ha":1424,"x_min":86,"x_max":1344,"o":"m 996 144 q 1160 208 1160 144 l 1160 767 q 996 833 1160 833 l 435 833 q 271 767 271 833 l 271 211 q 435 144 271 144 l 996 144 m 86 767 q 435 978 86 978 l 996 978 q 1344 767 1344 978 l 1344 208 q 996 0 1344 0 l 435 0 q 86 211 86 0 l 86 767 z "},"p":{"ha":1221,"x_min":90,"x_max":1199,"o":"m 90 0 l 90 978 l 850 978 q 1199 767 1199 978 l 1199 572 q 850 361 1199 361 l 275 361 l 275 0 l 90 0 m 275 833 l 275 506 l 850 506 q 1014 572 1014 506 l 1014 767 q 850 833 1014 833 l 275 833 z "},"q":{"ha":1390,"x_min":51,"x_max":1310,"o":"m 51 767 q 400 978 51 978 l 961 978 q 1310 767 1310 978 l 1310 208 q 1089 8 1310 43 l 1213 -217 l 1015 -217 l 899 0 l 400 0 q 51 211 51 0 l 51 767 m 961 144 q 1125 208 1125 144 l 1125 767 q 961 833 1125 833 l 400 833 q 236 767 236 833 l 236 211 q 400 144 236 144 l 961 144 z "},"r":{"ha":1293,"x_min":90,"x_max":1213,"o":"m 90 0 l 90 978 l 864 978 q 1213 767 1213 978 l 1213 647 q 971 442 1213 471 l 1203 0 l 1006 0 l 776 436 l 275 436 l 275 0 l 90 0 m 275 833 l 275 581 l 864 581 q 1028 647 1028 581 l 1028 767 q 864 833 1028 833 l 275 833 z "},"s":{"ha":1369,"x_min":76,"x_max":1293,"o":"m 944 593 q 1293 382 1293 593 l 1293 208 q 944 0 1293 0 l 110 0 l 110 144 l 944 144 q 1108 208 1108 144 l 1108 382 q 944 449 1108 449 l 425 449 q 76 660 76 449 l 76 767 q 425 978 76 978 l 1232 978 l 1232 833 l 425 833 q 261 767 261 833 l 261 660 q 425 593 261 593 l 944 593 z "},"t":{"ha":1261,"x_min":32,"x_max":1228,"o":"m 32 978 l 1228 978 l 1228 833 l 729 833 l 729 0 l 544 0 l 544 833 l 32 833 l 32 978 z "},"u":{"ha":1393,"x_min":88,"x_max":1304,"o":"m 956 144 q 1119 250 1119 144 l 1119 978 l 1304 978 l 1304 250 q 956 0 1304 0 l 436 0 q 88 253 88 0 l 88 978 l 272 978 l 272 253 q 436 144 272 144 l 956 144 z "},"v":{"ha":1431,"x_min":0,"x_max":1431,"o":"m 785 0 l 650 0 l 0 978 l 201 978 l 721 179 l 1235 978 l 1431 978 l 785 0 z "},"w":{"ha":1860,"x_min":0,"x_max":1860,"o":"m 1408 0 l 1269 0 l 931 750 l 585 0 l 450 0 l 0 978 l 178 978 l 518 228 l 861 978 l 999 978 l 1338 228 l 1681 978 l 1860 978 l 1408 0 z "},"x":{"ha":1383,"x_min":17,"x_max":1367,"o":"m 692 586 l 1126 978 l 1364 978 l 810 496 l 1367 0 l 1128 0 l 692 390 l 258 0 l 17 0 l 575 489 l 17 978 l 257 978 l 692 586 z "},"y":{"ha":1436,"x_min":0,"x_max":1436,"o":"m 628 397 l 0 978 l 236 978 l 719 531 l 1203 978 l 1436 978 l 813 397 l 813 0 l 628 0 l 628 397 z "},"z":{"ha":1442,"x_min":90,"x_max":1404,"o":"m 90 978 l 1404 978 l 1404 853 l 411 158 l 1404 158 l 1404 0 l 90 0 l 90 125 l 1079 819 l 90 819 l 90 978 z "},"¡":{"ha":356,"x_min":68,"x_max":281,"o":"m 256 797 l 93 797 l 93 978 l 256 978 l 256 797 m 281 0 l 68 0 l 110 700 l 239 700 l 281 0 z "},"¿":{"ha":935,"x_min":64,"x_max":911,"o":"m 413 389 q 249 322 249 389 l 249 211 q 413 144 249 144 l 911 144 l 911 0 l 413 0 q 64 211 64 0 l 64 322 q 413 533 64 533 l 475 533 q 639 600 639 533 l 639 704 l 796 704 l 796 600 q 475 389 796 389 l 413 389 m 797 797 l 640 797 l 640 978 l 797 978 l 797 797 z "},"−":{"ha":903,"x_min":90,"x_max":814,"o":"m 90 676 l 814 676 l 814 532 l 90 532 l 90 676 z "},"·":{"ha":407,"x_min":88,"x_max":306,"o":"m 88 576 l 306 576 l 306 396 l 88 396 l 88 576 z "},"¤":{"ha":1964,"x_min":86,"x_max":1878,"o":"m 86 472 l 181 472 l 181 511 l 156 511 l 156 633 l 181 633 l 181 676 l 156 676 l 156 728 l 765 728 l 765 664 q 732 682 756 682 q 668 575 668 682 q 735 469 668 469 q 778 496 756 469 l 778 472 l 811 472 l 811 728 l 1331 728 l 1331 692 l 1378 692 l 1378 728 l 1878 728 l 1878 0 l 86 0 l 86 472 m 1303 472 l 1303 603 q 1238 678 1303 678 q 1194 644 1204 678 q 1156 678 1182 678 q 1118 644 1132 678 l 1118 676 l 1074 676 l 1074 511 l 1047 511 l 1047 472 l 1144 472 l 1144 511 l 1118 511 l 1118 596 q 1144 628 1118 628 q 1165 596 1165 628 l 1165 472 l 1236 472 l 1236 511 l 1210 511 l 1210 596 q 1236 626 1210 626 q 1257 596 1257 626 l 1257 472 l 1303 472 m 1369 371 l 1292 371 l 1292 108 l 1336 108 l 1336 278 l 1340 278 l 1353 108 l 1433 108 l 1433 371 l 1389 371 l 1389 201 l 1385 201 l 1369 371 m 667 371 l 667 108 l 776 108 l 792 138 l 792 224 l 781 243 l 781 247 l 792 267 l 792 343 l 776 371 l 667 371 m 1147 343 l 1147 138 l 1161 108 l 1254 108 l 1271 138 l 1271 343 l 1256 371 l 1161 371 l 1147 343 m 376 371 l 376 108 l 429 108 l 429 224 l 444 224 l 444 108 l 501 108 l 501 214 l 481 243 l 481 247 l 501 275 l 501 343 l 486 371 l 376 371 m 356 407 l 401 407 l 401 485 q 435 468 411 468 q 499 574 499 468 q 432 679 499 679 q 389 651 413 679 l 389 676 l 356 676 l 356 407 m 660 572 q 583 681 660 681 q 508 572 508 681 q 583 467 508 467 q 660 572 660 467 m 1644 290 l 1697 290 l 1697 343 l 1683 371 l 1592 371 l 1576 343 l 1576 251 l 1593 224 l 1644 211 l 1644 158 l 1631 158 l 1631 197 l 1576 197 l 1576 138 l 1592 108 l 1682 108 l 1697 138 l 1697 238 l 1679 267 l 1631 278 l 1631 324 l 1644 324 l 1644 290 m 356 108 l 356 204 l 319 371 l 263 371 l 231 204 l 231 108 l 282 108 l 282 158 l 300 158 l 300 108 l 356 108 m 644 108 l 644 204 l 611 371 l 554 371 l 522 204 l 522 108 l 575 108 l 575 158 l 592 158 l 592 108 l 644 108 m 235 407 l 264 407 q 340 506 340 415 l 340 676 l 294 676 l 294 550 q 267 514 294 514 q 240 550 240 514 l 240 676 l 196 676 l 196 558 q 260 469 196 469 q 294 481 279 469 q 256 449 294 449 l 235 449 l 235 407 m 942 221 l 978 221 l 978 267 l 942 267 l 942 315 l 978 315 l 978 371 l 889 371 l 889 108 l 978 108 l 978 167 l 942 167 l 942 221 m 1092 217 l 1125 217 l 1125 263 l 1092 263 l 1092 315 l 1125 315 l 1125 371 l 1038 371 l 1038 108 l 1092 108 l 1092 217 m 1478 315 l 1478 108 l 1532 108 l 1532 315 l 1561 315 l 1561 371 l 1449 371 l 1449 315 l 1478 315 m 951 676 l 931 676 l 931 644 q 885 681 915 681 q 825 621 825 681 q 856 571 825 583 q 824 525 824 558 q 886 467 825 467 q 934 485 917 467 q 951 540 951 503 l 931 540 q 896 514 926 514 q 868 533 868 514 q 896 558 868 558 l 910 558 l 910 583 l 896 583 q 868 607 868 583 q 896 629 868 629 q 931 601 919 629 l 951 601 l 951 676 m 1522 674 l 1500 674 l 1500 644 q 1458 681 1483 681 q 1389 572 1389 681 q 1460 468 1389 468 q 1522 549 1510 468 l 1500 549 q 1465 517 1496 517 q 1433 572 1433 517 q 1465 629 1433 629 q 1500 592 1497 629 l 1522 592 l 1522 674 m 210 167 l 179 167 l 179 371 l 126 371 l 126 108 l 210 108 l 210 167 m 868 108 l 868 371 l 814 371 l 814 108 l 868 108 m 1028 511 l 1008 511 l 1008 601 q 1028 629 1008 629 q 1044 621 1036 629 l 1060 667 q 1036 678 1049 676 q 993 644 1007 678 l 993 676 l 967 676 l 967 472 l 1028 472 l 1028 511 m 1310 676 l 1310 633 l 1331 633 l 1331 472 l 1378 472 l 1378 676 l 1310 676 m 397 607 q 426 628 406 628 q 456 575 456 628 q 425 515 456 515 q 397 538 406 515 l 397 607 m 614 572 q 583 517 614 517 q 554 572 554 517 q 583 629 554 629 q 614 572 614 629 m 768 540 q 740 521 760 521 q 711 574 711 521 q 742 633 711 633 q 768 611 760 633 l 768 540 m 86 511 l 86 633 l 114 633 l 114 511 l 86 511 m 1200 158 l 1200 324 l 1215 324 l 1215 158 l 1200 158 m 86 676 l 86 728 l 114 728 l 114 676 l 86 676 m 282 197 l 282 224 l 290 293 l 293 293 l 300 224 l 300 197 l 282 197 m 575 197 l 575 224 l 582 293 l 586 293 l 592 224 l 592 197 l 575 197 m 721 224 l 736 224 l 736 158 l 721 158 l 721 224 m 721 267 l 721 324 l 736 324 l 736 267 l 721 267 m 429 267 l 429 324 l 444 324 l 444 267 l 429 267 z "}," ":{"ha":694,"x_min":0,"x_max":0,"o":""}," ":{"ha":694,"x_min":0,"x_max":0,"o":""},"º":{"ha":611,"x_min":69,"x_max":542,"o":"m 306 629 q 417 738 417 629 q 306 851 417 851 q 194 740 194 851 q 306 629 194 629 m 69 740 q 306 976 69 976 q 542 740 542 976 q 306 504 542 504 q 69 740 69 504 z "},"!":{"ha":356,"x_min":69,"x_max":282,"o":"m 94 181 l 257 181 l 257 0 l 94 0 l 94 181 m 69 978 l 282 978 l 240 278 l 111 278 l 69 978 z "}}}
